HIERARCHY
ROOT Hips
{
	OFFSET 0.000000 83.214638 0.000000
	CHANNELS 6 Xposition Yposition Zposition Xrotation Yrotation Zrotation
	JOINT Pelvis
	{
		OFFSET 0.000000 0.000000 0.000000
		CHANNELS 3 Xrotation Yrotation Zrotation
		JOINT LeftUpLeg
		{
			OFFSET 8.479700 -4.795502 -0.379100
			CHANNELS 3 Xrotation Yrotation Zrotation
			JOINT LeftLeg
			{
				OFFSET 0.024144 -32.555107 0.112900
				CHANNELS 3 Xrotation Yrotation Zrotation
				JOINT LeftFoot
				{
					OFFSET -0.024144 -32.638630 -3.012600
					CHANNELS 3 Xrotation Yrotation Zrotation
					JOINT LeftToeBase
					{
						OFFSET 0.970200 -13.225400 11.864200
						CHANNELS 3 Xrotation Yrotation Zrotation
						End Site
						{
							OFFSET 0.000000 12.319262 0.000000
						}
					}
					JOINT LFootTongue
					{
						OFFSET 1.142400 -1.059800 6.665200
						CHANNELS 3 Xrotation Yrotation Zrotation
						End Site
						{
							OFFSET 0.000000 12.319262 0.000000
						}
					}
				}
				JOINT LeftPantLeg
				{
					OFFSET 0.918482 -16.533964 -2.284700
					CHANNELS 3 Xrotation Yrotation Zrotation
					End Site
					{
						OFFSET 0.350399 24.744368 0.000000
					}
				}
			}
		}
		JOINT RightUpLeg
		{
			OFFSET -8.479700 -4.795502 -0.379100
			CHANNELS 3 Xrotation Yrotation Zrotation
			JOINT RightLeg
			{
				OFFSET -0.023144 -32.555092 0.112900
				CHANNELS 3 Xrotation Yrotation Zrotation
				JOINT RightFoot
				{
					OFFSET 0.023144 -32.638641 -3.012700
					CHANNELS 3 Xrotation Yrotation Zrotation
					JOINT RightToeBase
					{
						OFFSET -0.970200 -13.225400 11.864200
						CHANNELS 3 Xrotation Yrotation Zrotation
						End Site
						{
							OFFSET 0.000000 12.319244 0.000000
						}
					}
					JOINT RFootTongue
					{
						OFFSET -1.142200 -1.059800 6.665200
						CHANNELS 3 Xrotation Yrotation Zrotation
						End Site
						{
							OFFSET 0.000000 12.319243 0.000000
						}
					}
				}
				JOINT RightPantLeg
				{
					OFFSET -0.919482 -16.533978 -2.284800
					CHANNELS 3 Xrotation Yrotation Zrotation
					End Site
					{
						OFFSET -0.350400 24.744419 0.000000
					}
				}
			}
		}
	}
	JOINT Spine
	{
		OFFSET 0.000000 7.722000 1.166200
		CHANNELS 3 Xrotation Yrotation Zrotation
		JOINT Spine1
		{
			OFFSET 0.000000 12.024101 0.248800
			CHANNELS 3 Xrotation Yrotation Zrotation
			JOINT Spine2
			{
				OFFSET 0.000000 11.502998 -0.491200
				CHANNELS 3 Xrotation Yrotation Zrotation
				JOINT Neck
				{
					OFFSET 0.000000 18.430702 -3.123100
					CHANNELS 3 Xrotation Yrotation Zrotation
					JOINT Head
					{
						OFFSET 0.000000 9.051102 1.034000
						CHANNELS 3 Xrotation Yrotation Zrotation
						JOINT HairB
						{
							OFFSET 0.208400 24.786102 24.822300
							CHANNELS 3 Xrotation Yrotation Zrotation
							End Site
							{
								OFFSET 0.000000 32.263779 0.000000
							}
						}
						JOINT HairA
						{
							OFFSET -7.081100 24.428299 23.196600
							CHANNELS 3 Xrotation Yrotation Zrotation
							End Site
							{
								OFFSET 0.000000 32.263779 0.000000
							}
						}
						JOINT Hat
						{
							OFFSET 16.728800 15.048294 -15.439601
							CHANNELS 3 Xrotation Yrotation Zrotation
							End Site
							{
								OFFSET 0.000000 32.263779 0.000000
							}
						}
					}
				}
				JOINT LeftShoulder
				{
					OFFSET 6.197800 13.665199 -4.064700
					CHANNELS 3 Xrotation Yrotation Zrotation
					JOINT LeftArm
					{
						OFFSET 7.778100 -0.187103 -1.709300
						CHANNELS 3 Xrotation Yrotation Zrotation
						JOINT LeftForeArm
						{
							OFFSET 22.049376 0.000000 0.000000
							CHANNELS 3 Xrotation Yrotation Zrotation
							JOINT LeftHand
							{
								OFFSET 23.009392 0.000000 0.000000
								CHANNELS 3 Xrotation Yrotation Zrotation
								JOINT LeftHandThumb1
								{
									OFFSET 3.507191 -2.063065 3.133727
									CHANNELS 3 Xrotation Yrotation Zrotation
									JOINT LeftHandThumb2
									{
										OFFSET 3.101337 -1.790558 1.790558
										CHANNELS 3 Xrotation Yrotation Zrotation
										JOINT LeftHandThumb3
										{
											OFFSET 3.058640 -1.765907 1.765906
											CHANNELS 3 Xrotation Yrotation Zrotation
											End Site
											{
												OFFSET -0.415260 3.926476 -0.049563
											}
										}
									}
								}
								JOINT LeftHandIndex1
								{
									OFFSET 11.334419 -0.901459 3.706815
									CHANNELS 3 Xrotation Yrotation Zrotation
									JOINT LeftHandIndex2
									{
										OFFSET 3.283112 0.000000 0.000000
										CHANNELS 3 Xrotation Yrotation Zrotation
										JOINT LeftHandIndex3
										{
											OFFSET 3.323853 0.000000 0.000000
											CHANNELS 3 Xrotation Yrotation Zrotation
											End Site
											{
												OFFSET -1.135597 3.097809 0.402452
											}
										}
									}
								}
								JOINT LeftHandMiddle1
								{
									OFFSET 11.335861 0.000000 0.000000
									CHANNELS 3 Xrotation Yrotation Zrotation
									JOINT LeftHandMiddle2
									{
										OFFSET 3.410492 0.000000 0.000000
										CHANNELS 3 Xrotation Yrotation Zrotation
										JOINT LeftHandMiddle3
										{
											OFFSET 3.312172 0.000000 0.000000
											CHANNELS 3 Xrotation Yrotation Zrotation
											End Site
											{
												OFFSET -1.150200 3.080154 0.400270
											}
										}
									}
								}
								JOINT LeftHandRing1
								{
									OFFSET 11.514786 -0.013176 -3.003090
									CHANNELS 3 Xrotation Yrotation Zrotation
									JOINT LeftHandRing2
									{
										OFFSET 3.053307 0.000000 0.000000
										CHANNELS 3 Xrotation Yrotation Zrotation
										JOINT LeftHandRing3
										{
											OFFSET 3.295807 0.000000 0.000000
											CHANNELS 3 Xrotation Yrotation Zrotation
											End Site
											{
												OFFSET -1.281006 3.013344 0.375733
											}
										}
									}
								}
								JOINT LeftHandPinky1
								{
									OFFSET 10.518692 -0.960396 -5.730441
									CHANNELS 3 Xrotation Yrotation Zrotation
									JOINT LeftHandPinky2
									{
										OFFSET 2.861649 0.000000 0.000000
										CHANNELS 3 Xrotation Yrotation Zrotation
										JOINT LeftHandPinky3
										{
											OFFSET 2.863380 0.000000 0.000000
											CHANNELS 3 Xrotation Yrotation Zrotation
											End Site
											{
												OFFSET -0.843597 2.711159 0.369971
											}
										}
									}
								}
							}
							JOINT LSleeve
							{
								OFFSET 6.676277 -0.344902 -1.011730
								CHANNELS 3 Xrotation Yrotation Zrotation
								End Site
								{
									OFFSET 0.000000 14.885353 0.000000
								}
							}
						}
					}
				}
				JOINT RightShoulder
				{
					OFFSET -6.197800 13.665199 -4.064700
					CHANNELS 3 Xrotation Yrotation Zrotation
					JOINT RightArm
					{
						OFFSET -7.778100 -0.187103 -1.709300
						CHANNELS 3 Xrotation Yrotation Zrotation
						JOINT RightForeArm
						{
							OFFSET -22.049376 0.000000 0.000000
							CHANNELS 3 Xrotation Yrotation Zrotation
							JOINT RightHand
							{
								OFFSET -23.009392 0.000000 0.000000
								CHANNELS 3 Xrotation Yrotation Zrotation
								JOINT RightHandThumb1
								{
									OFFSET -3.507191 -2.063065 3.133727
									CHANNELS 3 Xrotation Yrotation Zrotation
									JOINT RightHandThumb2
									{
										OFFSET -3.101337 -1.790558 1.790558
										CHANNELS 3 Xrotation Yrotation Zrotation
										JOINT RightHandThumb3
										{
											OFFSET -3.058640 -1.765907 1.765906
											CHANNELS 3 Xrotation Yrotation Zrotation
											End Site
											{
												OFFSET 0.415260 3.926476 -0.049563
											}
										}
									}
								}
								JOINT RightHandIndex1
								{
									OFFSET -11.334419 -0.901459 3.706815
									CHANNELS 3 Xrotation Yrotation Zrotation
									JOINT RightHandIndex2
									{
										OFFSET -3.283112 0.000000 0.000000
										CHANNELS 3 Xrotation Yrotation Zrotation
										JOINT RightHandIndex3
										{
											OFFSET -3.323853 0.000000 0.000000
											CHANNELS 3 Xrotation Yrotation Zrotation
											End Site
											{
												OFFSET 1.135597 3.097809 0.402452
											}
										}
									}
								}
								JOINT RightHandMiddle1
								{
									OFFSET -11.335861 0.000000 0.000000
									CHANNELS 3 Xrotation Yrotation Zrotation
									JOINT RightHandMiddle2
									{
										OFFSET -3.410492 0.000000 0.000000
										CHANNELS 3 Xrotation Yrotation Zrotation
										JOINT RightHandMiddle3
										{
											OFFSET -3.312172 0.000000 0.000000
											CHANNELS 3 Xrotation Yrotation Zrotation
											End Site
											{
												OFFSET 1.150200 3.080154 0.400270
											}
										}
									}
								}
								JOINT RightHandRing1
								{
									OFFSET -11.514786 -0.013176 -3.003090
									CHANNELS 3 Xrotation Yrotation Zrotation
									JOINT RightHandRing2
									{
										OFFSET -3.053307 0.000000 0.000000
										CHANNELS 3 Xrotation Yrotation Zrotation
										JOINT RightHandRing3
										{
											OFFSET -3.295807 0.000000 0.000000
											CHANNELS 3 Xrotation Yrotation Zrotation
											End Site
											{
												OFFSET 1.281006 3.013344 0.375733
											}
										}
									}
								}
								JOINT RightHandPinky1
								{
									OFFSET -10.518692 -0.960396 -5.730441
									CHANNELS 3 Xrotation Yrotation Zrotation
									JOINT RightHandPinky2
									{
										OFFSET -2.861649 0.000000 0.000000
										CHANNELS 3 Xrotation Yrotation Zrotation
										JOINT RightHandPinky3
										{
											OFFSET -2.863380 0.000000 0.000000
											CHANNELS 3 Xrotation Yrotation Zrotation
											End Site
											{
												OFFSET 0.843597 2.711159 0.369971
											}
										}
									}
								}
							}
							JOINT RSleeve
							{
								OFFSET -6.676277 -0.344902 -1.011730
								CHANNELS 3 Xrotation Yrotation Zrotation
								End Site
								{
									OFFSET 0.000000 14.885353 0.000000
								}
							}
						}
					}
				}
				JOINT Backpack
				{
					OFFSET 0.000000 -2.471497 36.677502
					CHANNELS 3 Xrotation Yrotation Zrotation
					End Site
					{
						OFFSET 0.000000 20.427315 0.000000
					}
				}
				JOINT Hood
				{
					OFFSET 0.000000 18.754097 -10.431000
					CHANNELS 3 Xrotation Yrotation Zrotation
					JOINT Hood1
					{
						OFFSET 0.000000 -5.011002 -7.685901
						CHANNELS 3 Xrotation Yrotation Zrotation
						End Site
						{
							OFFSET 0.000000 9.175140 0.000000
						}
					}
				}
				JOINT LHoodieString
				{
					OFFSET 5.250500 16.397697 3.089900
					CHANNELS 3 Xrotation Yrotation Zrotation
					JOINT LHoodieString1
					{
						OFFSET 0.257700 -6.364304 3.694600
						CHANNELS 3 Xrotation Yrotation Zrotation
						JOINT LHoodieString2
						{
							OFFSET 0.000000 -9.643799 2.679100
							CHANNELS 3 Xrotation Yrotation Zrotation
							End Site
							{
								OFFSET 0.000000 10.009018 0.000000
							}
						}
					}
				}
				JOINT RHoodieString
				{
					OFFSET -5.250500 16.397697 3.089900
					CHANNELS 3 Xrotation Yrotation Zrotation
					JOINT RHoodieString1
					{
						OFFSET -0.257700 -6.364304 3.694600
						CHANNELS 3 Xrotation Yrotation Zrotation
						JOINT RHoodieString2
						{
							OFFSET 0.000000 -9.643799 2.679100
							CHANNELS 3 Xrotation Yrotation Zrotation
							End Site
							{
								OFFSET 0.000000 10.009018 0.000000
							}
						}
					}
				}
			}
			JOINT LBackpack_Strap
			{
				OFFSET 15.223200 -7.719803 -6.610900
				CHANNELS 3 Xrotation Yrotation Zrotation
				End Site
				{
					OFFSET 0.000000 16.040596 0.000000
				}
			}
			JOINT RBackpack_Strap
			{
				OFFSET -15.223000 -7.719803 -6.610900
				CHANNELS 3 Xrotation Yrotation Zrotation
				End Site
				{
					OFFSET 0.000000 16.040596 0.000000
				}
			}
		}
	}
	JOINT BoyFacialAnim_Joint
	{
		OFFSET 1.000000 -82.208099 -1.550900
		CHANNELS 3 Xrotation Yrotation Zrotation
		End Site
		{
			OFFSET 0.000000 30.012791 0.000000
		}
	}
}
MOTION
Frames: 4
Frame Time: 0.016667
-9.045388 70.598526 3.227847 5.782468 -41.326101 12.644734 -0.000000 0.000001 -0.000000 -52.360835 32.644151 37.009667 39.761028 -27.840713 2.334655 0.464128 1.789176 -14.412572 0.000000 -0.000002 -0.000000 0.000000 -0.000002 -0.000000 -0.000001 -0.000002 0.000000 -21.139243 -7.724510 -29.972318 53.407749 1.060617 -6.834860 -37.143737 -6.911964 22.750436 0.000000 -0.000000 -0.000000 0.000000 -0.000000 -0.000000 -0.000003 0.000002 0.000001 17.900876 -5.837818 2.833299 28.909028 -4.182649 -1.799673 17.801734 -2.616839 -3.497805 3.925425 -0.806463 17.439379 7.730332 1.255954 -11.559165 -0.000000 -0.000000 0.000000 -0.000000 -0.000000 0.000000 -0.000000 -0.000000 0.000000 2.354303 -30.783092 2.356277 -34.242829 -26.233527 -29.291420 -7.515793 -26.361387 1.290823 6.941809 -20.603891 5.351071 16.254368 -11.504926 21.549247 4.507372 18.475119 -9.635935 -0.000000 0.000003 0.000002 1.539055 -3.432146 14.456423 -0.180780 -1.247016 -29.044116 0.000003 0.000002 -0.000005 1.659188 1.542429 -11.529119 0.180717 -1.715830 -25.398304 -0.000001 0.000001 -0.000001 -0.041049 5.351825 -28.839886 -0.820813 -0.913430 -27.616159 -0.000000 0.000002 -0.000000 0.111665 11.221148 -18.652972 -0.848706 -0.437666 -22.689952 0.000001 0.000001 0.000002 0.000001 0.000000 0.000000 -0.512607 12.805420 24.404319 -20.406285 -19.745809 20.483667 -21.210729 81.262859 19.902925 -23.264546 11.560924 8.425371 55.149539 18.649540 -29.698277 -0.442517 -14.180581 7.313155 0.000001 -0.000003 -0.000002 5.673407 7.585018 36.844161 1.050464 3.824524 68.900257 -0.000004 0.000001 0.000004 -0.125696 1.886087 45.000776 -1.168985 3.204666 68.417650 0.000001 0.000001 0.000000 -5.311986 1.216643 58.508807 -0.745222 1.667582 48.011292 0.000002 -0.000002 0.000000 -7.756798 -9.376466 47.263994 -0.526012 1.541601 45.600515 -0.000001 -0.000001 0.000002 0.000001 -0.000000 0.000002 -0.000001 -0.000000 0.000002 -0.000001 -0.000000 0.000002 -0.000001 -0.000000 0.000002 -0.000001 -0.000000 0.000002 -0.000001 -0.000000 0.000004 -0.000000 0.000001 0.000000 -0.000001 -0.000000 0.000002 -0.000001 -0.000000 0.000004 -0.000000 0.000001 0.000000 0.000002 0.000001 -0.000000 0.000002 0.000001 -0.000000 -0.000000 0.000001 -0.000000 
-8.675598 70.777611 3.292920 4.240511 -40.785932 11.166090 -0.000000 0.000002 0.000000 -51.999712 32.762409 37.191732 39.822499 -28.024864 2.329706 0.695650 0.983041 -13.755231 -0.000000 0.000000 -0.000000 -0.000000 0.000000 -0.000000 0.000000 0.000001 0.000000 -19.592370 -8.520239 -29.811023 52.385860 0.916510 -6.769400 -36.485593 -6.989448 23.005330 -0.000000 -0.000002 -0.000000 -0.000000 -0.000002 -0.000000 0.000003 -0.000000 -0.000001 17.678553 -5.712780 2.759447 28.357197 -3.983560 -2.018761 17.259835 -2.365360 -3.582328 3.399012 0.434955 18.470291 8.197295 1.394237 -12.300065 -0.000000 0.000000 0.000001 -0.000000 0.000000 0.000001 -0.000000 0.000000 0.000001 2.328556 -30.676866 2.585237 -33.628826 -25.347559 -29.746519 -7.805145 -23.996575 1.221993 7.439369 -16.512025 6.913808 16.348013 -10.644457 20.290662 4.173231 18.061319 -9.539046 -0.000001 -0.000001 -0.000003 -0.027719 -3.469724 16.408548 -0.157407 -1.203762 -27.954899 -0.000001 0.000000 -0.000004 1.407629 2.022338 -8.664062 0.274502 -1.534071 -22.087508 0.000000 0.000001 -0.000001 0.329466 4.603407 -25.951959 -0.773379 -0.788258 -24.421533 0.000001 0.000002 -0.000000 1.291783 9.409260 -14.825721 -0.832743 -0.348418 -20.341067 0.000000 0.000002 -0.000002 -0.000000 0.000001 -0.000000 -0.608459 13.107895 25.085202 -20.872672 -20.553209 19.261005 -11.666993 82.321360 10.693484 -23.900128 9.732269 8.487058 55.149543 18.649545 -29.698270 -0.442521 -14.180581 7.313156 0.000000 -0.000001 -0.000002 5.673411 7.585019 36.844161 1.050467 3.824518 68.900264 -0.000001 0.000002 -0.000003 -0.125694 1.886086 45.000773 -1.168982 3.204664 68.417650 -0.000002 -0.000002 0.000003 -5.311990 1.216647 58.508807 -0.745224 1.667586 48.011298 0.000001 -0.000003 0.000002 -7.756793 -9.376466 47.264001 -0.526012 1.541600 45.600515 -0.000001 0.000002 0.000001 -0.000000 -0.000001 -0.000000 -0.000000 -0.000002 0.000001 -0.000000 -0.000002 0.000001 -0.000000 -0.000002 0.000001 -0.000000 -0.000002 0.000001 -0.000000 -0.000002 0.000003 -0.000000 -0.000001 -0.000001 -0.000000 -0.000002 0.000001 -0.000000 -0.000002 0.000003 -0.000000 -0.000001 -0.000001 -0.000002 -0.000000 0.000000 -0.000002 -0.000000 0.000000 -0.000000 0.000002 0.000000 
-8.332804 70.927986 3.378053 3.014908 -40.053582 9.873086 0.000000 -0.000001 -0.000000 -51.949449 32.794897 37.387008 39.981349 -28.236480 2.331267 0.915825 0.130937 -13.068332 0.000000 -0.000002 0.000000 0.000000 -0.000002 0.000000 -0.000000 -0.000001 -0.000000 -18.134823 -9.269467 -29.497582 51.368999 0.665814 -6.710975 -35.860863 -7.225419 23.274016 0.000000 -0.000002 -0.000000 0.000000 -0.000002 -0.000000 0.000003 0.000003 -0.000001 17.478145 -5.509230 2.832972 27.805756 -3.750697 -1.987551 16.722214 -2.190762 -3.347004 2.348158 1.128150 18.345325 8.178884 1.108624 -12.085777 -0.000001 0.000000 -0.000002 -0.000001 0.000000 -0.000002 -0.000001 0.000000 -0.000002 2.243009 -30.396217 2.625584 -33.029190 -24.760057 -30.398122 -7.945673 -22.391732 0.965501 6.968112 -14.661028 7.619794 16.520312 -10.013516 19.194237 3.726979 17.497763 -9.405204 0.000001 -0.000004 -0.000002 -1.121933 -3.629191 17.132773 -0.125504 -1.141314 -26.402308 -0.000003 -0.000000 -0.000004 1.251153 2.428155 -6.762188 0.341900 -1.385034 -19.439919 -0.000002 -0.000003 0.000003 0.442688 4.444514 -23.821673 -0.734566 -0.666205 -21.365049 -0.000001 -0.000002 -0.000002 2.196511 8.467041 -11.623432 -0.821262 -0.265647 -18.176544 0.000003 0.000002 0.000000 0.000001 0.000001 0.000001 -0.501974 12.543246 24.284789 -20.300874 -21.057222 19.750071 -3.535616 83.023934 2.884498 -24.115014 8.786025 8.308327 55.149543 18.649543 -29.698267 -0.442521 -14.180586 7.313156 -0.000001 0.000004 0.000002 5.673410 7.585019 36.844158 1.050465 3.824523 68.900257 -0.000002 -0.000001 0.000002 -0.125696 1.886083 45.000773 -1.168984 3.204665 68.417657 0.000005 0.000002 -0.000001 -5.311988 1.216646 58.508807 -0.745222 1.667577 48.011295 -0.000003 -0.000001 0.000000 -7.756799 -9.376463 47.263994 -0.526013 1.541607 45.600518 0.000000 -0.000004 0.000003 0.000000 0.000000 -0.000003 0.000001 0.000000 -0.000001 0.000001 0.000000 -0.000001 0.000001 0.000000 -0.000001 0.000001 0.000000 -0.000001 0.000001 0.000000 -0.000002 0.000001 -0.000001 0.000001 0.000001 0.000000 -0.000001 0.000001 0.000000 -0.000002 0.000001 -0.000001 0.000001 0.000001 -0.000003 0.000001 0.000001 -0.000003 0.000001 0.000000 -0.000001 -0.000000 
-7.992719 71.073875 3.466753 1.936954 -39.206399 8.723780 0.000000 -0.000002 -0.000000 -51.964626 32.840878 37.499504 40.112113 -28.447774 2.330584 1.172088 -0.750650 -12.365821 0.000000 -0.000002 -0.000000 0.000000 -0.000002 -0.000000 0.000000 0.000001 0.000001 -16.708473 -9.994084 -29.158146 50.331288 0.366635 -6.652916 -35.228504 -7.532914 23.552297 -0.000000 0.000002 0.000000 -0.000000 0.000002 0.000000 -0.000001 0.000002 0.000000 17.248268 -5.310881 2.884612 27.212097 -3.554405 -1.949097 16.129913 -2.065771 -3.134682 1.254579 1.689145 17.729141 7.834704 0.608335 -11.472244 -0.000001 -0.000000 0.000004 -0.000001 -0.000000 0.000004 -0.000001 -0.000000 0.000004 2.180221 -30.084688 2.687287 -32.508944 -24.092768 -31.048172 -8.013985 -21.085953 0.699053 6.449172 -13.147107 7.884992 16.823171 -9.647919 18.086857 3.016021 16.587727 -9.197028 -0.000001 -0.000000 -0.000001 -1.666550 -3.856569 16.343898 -0.080182 -1.044504 -24.034978 -0.000001 -0.000003 -0.000002 1.220570 2.798730 -5.837806 0.392844 -1.258201 -17.228423 -0.000003 0.000001 -0.000001 0.086342 5.042132 -22.266482 -0.697786 -0.522222 -17.818273 -0.000000 0.000001 -0.000000 2.680550 8.471298 -8.438555 -0.812048 -0.171817 -15.734263 0.000002 0.000002 0.000002 -0.000000 0.000000 -0.000001 -0.531453 12.423655 23.593304 -19.558388 -22.044741 20.084139 3.473047 83.560261 -3.939693 -24.470157 8.375683 8.315515 55.149539 18.649540 -29.698274 -0.442523 -14.180579 7.313154 -0.000000 -0.000001 0.000001 5.673408 7.585016 36.844154 1.050464 3.824525 68.900257 -0.000003 0.000001 0.000005 -0.125698 1.886085 45.000776 -1.168982 3.204669 68.417650 -0.000003 0.000004 -0.000003 -5.311993 1.216643 58.508807 -0.745221 1.667585 48.011292 -0.000004 0.000002 0.000002 -7.756801 -9.376467 47.263987 -0.526011 1.541605 45.600511 0.000001 -0.000001 -0.000002 0.000001 0.000000 0.000000 0.000003 -0.000001 0.000001 0.000003 -0.000001 0.000001 0.000003 -0.000001 0.000001 0.000003 -0.000001 0.000001 0.000003 -0.000001 0.000001 0.000002 -0.000001 0.000001 0.000003 -0.000001 0.000001 0.000003 -0.000001 0.000001 0.000002 -0.000001 0.000001 -0.000003 -0.000001 0.000002 -0.000003 -0.000001 0.000002 0.000000 -0.000002 -0.000000 
